# xmcd CD database file
#
# Track frame offsets:
#	150
#	17251
#	32721
#	50300
#	65380
#	84532
#	99993
#	114907
#	134202
#	152039
#	168714
#
# Disc length: 2464 seconds
#
# Revision: 3
# Processed by: cddbd v1.5.2PL0 Copyright (c) Steve Scherf et al.
# Submitted via: CDex 1.70beta2
#
DISCID=86099e0b
DTITLE=Jippu - V‰‰rinp‰in lent‰v‰t linnut
DYEAR=2012
DGENRE=Pop
TTITLE0=Eva (Nukutaan kielletyll‰ iholla)
TTITLE1=Henki ja el‰m‰
TTITLE2=V‰‰rinp‰in lent‰v‰t linnut
TTITLE3=Kuningas
TTITLE4=Suojassa
TTITLE5=Hei me erotaan
TTITLE6=V‰‰rin tein ( Purple Rain )
TTITLE7=Kotona taas
TTITLE8=Onneton morsian
TTITLE9=Inhoan sinua
TTITLE10=Haluun unohtaa rauhassa
EXTD=YEAR: 2012
EXTT0=
EXTT1=
EXTT2=
EXTT3=
EXTT4=
EXTT5=
EXTT6=
EXTT7=
EXTT8=
EXTT9=
EXTT10=
PLAYORDER=
